# xmcd CD database file
#
# Track frame offsets:
#	150
#	21000
#	61712
#	78343
#	104823
#	130923
#	153451
#	166654
#	203812
#
# Disc length: 3057 seconds
#
# Revision: 0
# Processed by: cddbd v1.5.2PL0 Copyright (c) Steve Scherf et al.
# Submitted via: CDex 1.70beta3
#
DISCID=6b0bef09
DTITLE=Farmyard Animal Trio - Livestock
DYEAR=2007
DGENRE=Jazz
TTITLE0=Marunouchi
TTITLE1=The Bees, The Bees
TTITLE2=Kaymak....mmmmm
TTITLE3=Standing Ovation
TTITLE4=Con Alma
TTITLE5=Artigana
TTITLE6=Major Dance Revolt of the Naked it Girls
TTITLE7=Don't Buy Ivory Anymore
TTITLE8=Geamparale
EXTD=YEAR: 2007
EXTT0=
EXTT1=
EXTT2=
EXTT3=
EXTT4=
EXTT5=
EXTT6=
EXTT7=
EXTT8=
PLAYORDER=
